<svg xmlns="http://www.w3.org/2000/svg" version="1.1" xmlns:xlink="http://www.w3.org/1999/xlink" xmlns:svgjs="http://svgjs.dev/svgjs" width="1000" height="1000" viewBox="0 0 1000 1000"><rect width="1000" height="1000" fill="#ffffff"></rect><g transform="matrix(0.7,0,0,0.7,149.57576615525602,410.409593149151)"><svg viewBox="0 0 396 101" data-background-color="#ffffff" preserveAspectRatio="xMidYMid meet" height="255" width="1000" xmlns="http://www.w3.org/2000/svg" xmlns:xlink="http://www.w3.org/1999/xlink"><g id="tight-bounds" transform="matrix(1,0,0,1,0.23999514645515774,0.19261115930390815)"><svg viewBox="0 0 395.52 100.61477768139217" height="100.61477768139217" width="395.52"><g><svg viewBox="0 0 540.6864618796589 137.54310314866606" height="100.61477768139217" width="395.52"><g transform="matrix(1,0,0,1,145.16646187965884,38.835669776682735)"><svg viewBox="0 0 395.52 59.87176359530059" height="59.87176359530059" width="395.52"><g id="textblocktransform"><svg viewBox="0 0 395.52 59.87176359530059" height="59.87176359530059" width="395.52" id="textblock"><g><svg viewBox="0 0 395.52 32.2919683957403" height="32.2919683957403" width="395.52"><g transform="matrix(1,0,0,1,0,0)"><svg width="395.52" viewBox="4.25 -35.150001525878906 436.6099853515625 35.650001525878906" height="32.2919683957403" data-palette-color="#156a4a"><path d="M8.1 0L4.25 0 4.25-34.6 11.45-34.6 24.7-3.4 25.75-3.4 25.75-34.6 29.55-34.6 29.55 0 22.5 0 9.05-31.2 8.1-31.2 8.1 0ZM40.6-17.15Q40.6-9.55 42.6-6.23 44.6-2.9 50.32-2.9 56.05-2.9 58.02-6.15 60-9.4 60-17.05 60-24.7 57.95-28.2 55.9-31.7 50.27-31.7 44.65-31.7 42.62-28.23 40.6-24.75 40.6-17.15ZM64-17.05Q64-7.8 61.05-3.65 58.1 0.5 50.32 0.5 42.55 0.5 39.6-3.75 36.65-8 36.65-17.13 36.65-26.25 39.65-30.68 42.65-35.1 50.3-35.1 57.95-35.1 60.97-30.7 64-26.3 64-17.05ZM82.15-3.4L90.1-34.6 94.1-34.6 85.05 0 76.45 0 67.4-34.6 71.4-34.6 79.35-3.4 82.15-3.4ZM103.14-34.6L103.14-10.4Q103.14-2.9 111.24-2.9L111.24-2.9Q115.44-2.9 117.57-4.67 119.69-6.45 119.69-10.4L119.69-10.4 119.69-34.6 123.49-34.6 123.49-10.5Q123.49-4.7 120.42-2.1 117.34 0.5 111.34 0.5 105.34 0.5 102.32-2.1 99.29-4.7 99.29-10.5L99.29-10.5 99.29-34.6 103.14-34.6ZM141.29-31.75L141.29-31.75Q133.79-31.75 133.79-26.1L133.79-26.1Q133.79-22.95 135.52-21.78 137.24-20.6 142.52-19.43 147.79-18.25 149.99-16.38 152.19-14.5 152.19-10.2L152.19-10.2Q152.19 0.45 141.14 0.45L141.14 0.45Q137.49 0.45 131.99-0.4L131.99-0.4 130.19-0.65 130.59-3.85Q137.39-2.95 140.94-2.95L140.94-2.95Q148.34-2.95 148.34-9.9L148.34-9.9Q148.34-12.7 146.72-13.93 145.09-15.15 140.64-16L140.64-16Q134.79-17.25 132.34-19.23 129.89-21.2 129.89-25.85L129.89-25.85Q129.89-35.15 141.04-35.15L141.04-35.15Q144.69-35.15 149.79-34.4L149.79-34.4 151.49-34.15 151.14-30.9Q144.19-31.75 141.29-31.75ZM181.54-3.4L189.49-34.6 193.49-34.6 184.44 0 175.84 0 166.79-34.6 170.79-34.6 178.74-3.4 181.54-3.4ZM219.98 0L198.93 0 198.93-34.6 219.98-34.6 219.98-31.2 202.78-31.2 202.78-19.25 216.98-19.25 216.98-15.9 202.78-15.9 202.78-3.4 219.98-3.4 219.98 0ZM245.63-14.25L239.88-14.25 239.88-17.7 249.43-17.7 249.43-0.7Q243.13 0.5 238.18 0.5L238.18 0.5Q230.63 0.5 227.71-3.85 224.78-8.2 224.78-17.28 224.78-26.35 227.71-30.73 230.63-35.1 238.08-35.1L238.08-35.1Q242.73-35.1 247.73-34.1L247.73-34.1 249.43-33.8 249.28-30.6Q243.08-31.65 238.53-31.65L238.53-31.65Q232.78-31.65 230.78-28.33 228.78-25 228.78-17.28 228.78-9.55 230.78-6.23 232.78-2.9 238.48-2.9L238.48-2.9Q241.98-2.9 245.63-3.6L245.63-3.6 245.63-14.25ZM257.73 0L253.93 0 263.43-34.6 271.83-34.6 281.33 0 277.53 0 275.03-8.9 260.23-8.9 257.73 0ZM268.93-31.3L266.33-31.3 261.08-12.35 274.18-12.35 268.93-31.3ZM291.48-31.15L280.82-31.15 280.82-34.6 305.82-34.6 305.82-31.15 295.28-31.15 295.28 0 291.48 0 291.48-31.15ZM309.12 0L305.32 0 314.82-34.6 323.22-34.6 332.72 0 328.92 0 326.42-8.9 311.62-8.9 309.12 0ZM320.32-31.3L317.72-31.3 312.47-12.35 325.57-12.35 320.32-31.3ZM338.17 0L338.17-34.6 350.72-34.6Q355.87-34.6 358.44-32.48 361.02-30.35 361.02-25.8L361.02-25.8Q361.02-22.55 359.9-20.73 358.77-18.9 356.57-17.85L356.57-17.85Q362.07-15.95 362.07-9.7L362.07-9.7Q362.07-4.5 359.32-2.25 356.57 0 351.37 0L351.37 0 338.17 0ZM350.97-15.9L350.97-15.9 342.02-15.9 342.02-3.4 351.22-3.4Q354.62-3.4 356.4-4.83 358.17-6.25 358.17-9.85L358.17-9.85Q358.17-11.75 357.44-13.05 356.72-14.35 355.52-14.9L355.52-14.9Q353.32-15.9 350.97-15.9ZM350.57-31.2L350.57-31.2 342.02-31.2 342.02-19.25 350.92-19.25Q354.12-19.25 355.6-20.78 357.07-22.3 357.07-25.38 357.07-28.45 355.5-29.83 353.92-31.2 350.57-31.2ZM388.02-3.45L388.02 0 368.97 0 368.97-34.6 372.82-34.6 372.82-3.45 388.02-3.45ZM413.97 0L392.92 0 392.92-34.6 413.97-34.6 413.97-31.2 396.77-31.2 396.77-19.25 410.97-19.25 410.97-15.9 396.77-15.9 396.77-3.4 413.97-3.4 413.97 0ZM429.96-31.75L429.96-31.75Q422.46-31.75 422.46-26.1L422.46-26.1Q422.46-22.95 424.19-21.78 425.91-20.6 431.19-19.43 436.46-18.25 438.66-16.38 440.86-14.5 440.86-10.2L440.86-10.2Q440.86 0.45 429.81 0.45L429.81 0.45Q426.16 0.45 420.66-0.4L420.66-0.4 418.86-0.65 419.26-3.85Q426.06-2.95 429.61-2.95L429.61-2.95Q437.01-2.95 437.01-9.9L437.01-9.9Q437.01-12.7 435.39-13.93 433.76-15.15 429.31-16L429.31-16Q423.46-17.25 421.01-19.23 418.56-21.2 418.56-25.85L418.56-25.85Q418.56-35.15 429.71-35.15L429.71-35.15Q433.36-35.15 438.46-34.4L438.46-34.4 440.16-34.15 439.81-30.9Q432.86-31.75 429.96-31.75Z" opacity="1" transform="matrix(1,0,0,1,0,0)" fill="#000000" class="wordmark-text-0" data-fill-palette-color="primary" id="text-0"></path></svg></g></svg></g><g transform="matrix(1,0,0,1,0,39.91532712673308)"><svg viewBox="0 0 143.04749926552475 19.956436468567503" height="19.956436468567503" width="143.04749926552475"><g transform="matrix(1,0,0,1,0,0)"><svg width="143.04749926552475" viewBox="1.149999976158142 -38.599998474121094 353.1100158691406 49.269996643066406" height="19.956436468567503" data-palette-color="#196f4f"><path d="M21.78 0L15.82 0 4.17-31.37 1.15-31.76 1.15-35.55 14.06-35.55 14.06-31.76 10.84-31.25 18.24-9.59 18.9-7.28 19.04-7.28 19.73-9.57 27.22-31.27 23.54-31.76 23.54-35.55 36.06-35.55 36.06-31.76 32.98-31.37 21.78 0ZM49.36 0.51L49.36 0.51Q45.63 0.51 42.86-1.16 40.09-2.83 38.56-5.79 37.03-8.74 37.03-12.55L37.03-12.55 37.03-13.57Q37.03-17.43 38.54-20.45 40.04-23.46 42.67-25.18 45.31-26.9 48.68-26.9L48.68-26.9Q52.27-26.9 54.7-25.46 57.13-24.02 58.37-21.37 59.62-18.73 59.62-15.01L59.62-15.01 59.62-11.5 43.41-11.5 43.36-11.38Q43.45-9.3 44.22-7.69 44.99-6.08 46.42-5.15 47.85-4.22 49.9-4.22L49.9-4.22Q52.05-4.22 53.81-4.81 55.56-5.4 57.05-6.47L57.05-6.47 58.98-2.61Q57.42-1.29 55-0.39 52.59 0.51 49.36 0.51ZM43.43-15.94L43.5-15.82 53.73-15.82 53.73-16.46Q53.73-18.19 53.21-19.49 52.68-20.8 51.57-21.53 50.46-22.27 48.75-22.27L48.75-22.27Q47.26-22.27 46.14-21.44 45.02-20.61 44.35-19.18 43.67-17.75 43.43-15.94L43.43-15.94ZM75.14 10.67L75.14 10.67Q73.19 10.67 70.81 10.14 68.43 9.62 66.62 8.69L66.62 8.69 67.89 4.2Q69.45 4.91 71.33 5.35 73.21 5.79 74.9 5.79L74.9 5.79Q77.92 5.79 79.33 4.11 80.73 2.44 80.73-0.61L80.73-0.61 80.73-2.69Q79.51-1.12 77.83-0.31 76.14 0.51 73.97 0.51L73.97 0.51Q70.75 0.51 68.42-1.1 66.08-2.71 64.85-5.62 63.62-8.52 63.62-12.35L63.62-12.35 63.62-12.87Q63.62-17.09 64.85-20.24 66.08-23.39 68.39-25.15 70.7-26.9 73.9-26.9L73.9-26.9Q76.31-26.9 78.1-25.92 79.88-24.93 81.12-23.1L81.12-23.1 81.59-26.42 86.88-26.42 86.88-0.59Q86.88 2.86 85.49 5.38 84.1 7.91 81.46 9.29 78.83 10.67 75.14 10.67ZM75.63-4.35L75.63-4.35Q77.41-4.35 78.67-5.1 79.93-5.86 80.73-7.3L80.73-7.3 80.73-19.07Q79.93-20.46 78.66-21.25 77.39-22.05 75.65-22.05L75.65-22.05Q73.63-22.05 72.32-20.89 71.02-19.73 70.39-17.66 69.77-15.6 69.77-12.87L69.77-12.87 69.77-12.35Q69.77-8.69 71.17-6.52 72.58-4.35 75.63-4.35ZM90.06-22.63L86.05-21.78 83.47-26.42 90.06-26.42 90.06-22.63ZM103.97 10.67L103.97 10.67Q102.02 10.67 99.64 10.14 97.26 9.62 95.45 8.69L95.45 8.69 96.72 4.2Q98.28 4.91 100.16 5.35 102.04 5.79 103.73 5.79L103.73 5.79Q106.76 5.79 108.16 4.11 109.56 2.44 109.56-0.61L109.56-0.61 109.56-2.69Q108.34-1.12 106.66-0.31 104.97 0.51 102.8 0.51L102.8 0.51Q99.58 0.51 97.25-1.1 94.91-2.71 93.68-5.62 92.45-8.52 92.45-12.35L92.45-12.35 92.45-12.87Q92.45-17.09 93.68-20.24 94.91-23.39 97.22-25.15 99.53-26.9 102.73-26.9L102.73-26.9Q105.14-26.9 106.93-25.92 108.71-24.93 109.95-23.1L109.95-23.1 110.42-26.42 115.72-26.42 115.72-0.59Q115.72 2.86 114.32 5.38 112.93 7.91 110.3 9.29 107.66 10.67 103.97 10.67ZM104.46-4.35L104.46-4.35Q106.24-4.35 107.5-5.1 108.76-5.86 109.56-7.3L109.56-7.3 109.56-19.07Q108.76-20.46 107.49-21.25 106.22-22.05 104.48-22.05L104.48-22.05Q102.46-22.05 101.15-20.89 99.85-19.73 99.22-17.66 98.6-15.6 98.6-12.87L98.6-12.87 98.6-12.35Q98.6-8.69 100-6.52 101.41-4.35 104.46-4.35ZM118.89-22.63L114.89-21.78 112.3-26.42 118.89-26.42 118.89-22.63ZM134.44 0L120.99 0 120.99-3.76 124.65-4.49 124.65-21.9 120.77-22.63 120.77-26.42 130.8-26.42 130.8-4.49 134.44-3.76 134.44 0ZM130.8-32.4L124.4-32.4 124.4-38.09 130.8-38.09 130.8-32.4ZM149.6 0.51L149.6 0.51Q145.86 0.51 143.09-1.16 140.32-2.83 138.79-5.79 137.27-8.74 137.27-12.55L137.27-12.55 137.27-13.57Q137.27-17.43 138.77-20.45 140.27-23.46 142.91-25.18 145.54-26.9 148.91-26.9L148.91-26.9Q152.5-26.9 154.93-25.46 157.36-24.02 158.61-21.37 159.85-18.73 159.85-15.01L159.85-15.01 159.85-11.5 143.64-11.5 143.59-11.38Q143.69-9.3 144.46-7.69 145.23-6.08 146.65-5.15 148.08-4.22 150.13-4.22L150.13-4.22Q152.28-4.22 154.04-4.81 155.8-5.4 157.29-6.47L157.29-6.47 159.22-2.61Q157.65-1.29 155.24-0.39 152.82 0.51 149.6 0.51ZM143.66-15.94L143.74-15.82 153.97-15.82 153.97-16.46Q153.97-18.19 153.44-19.49 152.92-20.8 151.81-21.53 150.7-22.27 148.99-22.27L148.99-22.27Q147.5-22.27 146.37-21.44 145.25-20.61 144.58-19.18 143.91-17.75 143.66-15.94L143.66-15.94ZM174.45 0.51L174.45 0.51Q171.62 0.51 169.16-0.04 166.71-0.59 164.24-1.66L164.24-1.66 164.17-8.64 168.59-8.64 169.52-4.83Q170.57-4.37 171.68-4.11 172.79-3.86 174.15-3.86L174.15-3.86Q176.79-3.86 177.88-4.79 178.96-5.71 178.96-7.08L178.96-7.08Q178.96-8.4 177.83-9.34 176.69-10.28 173.5-10.96L173.5-10.96Q168.76-11.99 166.53-13.95 164.29-15.92 164.29-19.07L164.29-19.07Q164.29-21.24 165.45-23 166.61-24.76 168.87-25.82 171.13-26.88 174.42-26.88L174.42-26.88Q177.43-26.88 179.76-26.26 182.09-25.63 183.73-24.61L183.73-24.61 183.87-17.9 179.5-17.9 178.74-21.39Q177.99-21.92 176.99-22.22 175.99-22.51 174.69-22.51L174.69-22.51Q172.67-22.51 171.49-21.62 170.32-20.73 170.32-19.38L170.32-19.38Q170.32-18.6 170.7-17.97 171.08-17.33 172.17-16.81 173.25-16.28 175.35-15.8L175.35-15.8Q180.5-14.6 182.72-12.67 184.95-10.74 184.95-7.57L184.95-7.57Q184.95-4.03 182.36-1.76 179.77 0.51 174.45 0.51ZM215.43 0L201.01 0 201.01-3.76 204.69-4.49 204.69-22.02 200.66-22.02 200.66-26.42 204.69-26.42 204.69-29.52Q204.69-33.86 207.1-36.23 209.5-38.6 213.82-38.6L213.82-38.6Q214.82-38.6 215.97-38.44 217.12-38.28 218.07-38.04L218.07-38.04 217.46-33.42Q216.95-33.54 216.19-33.63 215.43-33.72 214.7-33.72L214.7-33.72Q212.75-33.72 211.78-32.64 210.82-31.57 210.82-29.52L210.82-29.52 210.82-26.42 216.73-26.42 216.73-22.02 210.82-22.02 210.82-4.49 215.43-3.76 215.43 0ZM231.79 0.51L231.79 0.51Q227.98 0.51 225.25-1.2 222.51-2.91 221.05-5.94 219.58-8.98 219.58-12.94L219.58-12.94 219.58-13.45Q219.58-17.38 221.05-20.41 222.51-23.44 225.25-25.17 227.98-26.9 231.74-26.9L231.74-26.9Q235.55-26.9 238.28-25.18 241.02-23.46 242.48-20.43 243.95-17.41 243.95-13.45L243.95-13.45 243.95-12.94Q243.95-8.98 242.48-5.94 241.02-2.91 238.3-1.2 235.57 0.51 231.79 0.51ZM231.79-4.22L231.79-4.22Q233.84-4.22 235.17-5.33 236.5-6.45 237.16-8.41 237.82-10.38 237.82-12.94L237.82-12.94 237.82-13.45Q237.82-15.99 237.16-17.94 236.5-19.9 235.16-21.02 233.82-22.14 231.74-22.14L231.74-22.14Q229.71-22.14 228.37-21.02 227.03-19.9 226.38-17.94 225.73-15.99 225.73-13.45L225.73-13.45 225.73-12.94Q225.73-10.38 226.38-8.41 227.03-6.45 228.38-5.33 229.74-4.22 231.79-4.22ZM261.11 0L247.63 0 247.63-3.76 251.29-4.49 251.29-21.9 247.44-22.63 247.44-26.42 256.96-26.42 257.27-23.1 257.32-22.56Q258.37-24.66 259.9-25.78 261.43-26.9 263.48-26.9L263.48-26.9Q264.16-26.9 264.93-26.78 265.7-26.66 266.19-26.51L266.19-26.51 265.48-20.83 262.04-21.02Q260.35-21.12 259.26-20.36 258.18-19.6 257.45-18.26L257.45-18.26 257.45-4.49 261.11-3.76 261.11 0ZM294.16 0L280.66 0 280.66-3.76 284.35-4.49 284.35-33.57 280.44-34.3 280.44-38.09 290.47-38.09 290.47-4.49 294.16-3.76 294.16 0ZM310.2 0L296.74 0 296.74-3.76 300.41-4.49 300.41-21.9 296.53-22.63 296.53-26.42 306.56-26.42 306.56-4.49 310.2-3.76 310.2 0ZM306.56-32.4L300.16-32.4 300.16-38.09 306.56-38.09 306.56-32.4ZM327.58 0L313.15 0 313.15-3.76 316.84-4.49 316.84-22.02 312.81-22.02 312.81-26.42 316.84-26.42 316.84-29.52Q316.84-33.86 319.24-36.23 321.64-38.6 325.97-38.6L325.97-38.6Q326.97-38.6 328.11-38.44 329.26-38.28 330.21-38.04L330.21-38.04 329.6-33.42Q329.09-33.54 328.33-33.63 327.58-33.72 326.84-33.72L326.84-33.72Q324.89-33.72 323.93-32.64 322.96-31.57 322.96-29.52L322.96-29.52 322.96-26.42 328.87-26.42 328.87-22.02 322.96-22.02 322.96-4.49 327.58-3.76 327.58 0ZM344.01 0.51L344.01 0.51Q340.27 0.51 337.5-1.16 334.73-2.83 333.2-5.79 331.68-8.74 331.68-12.55L331.68-12.55 331.68-13.57Q331.68-17.43 333.18-20.45 334.68-23.46 337.32-25.18 339.95-26.9 343.32-26.9L343.32-26.9Q346.91-26.9 349.34-25.46 351.77-24.02 353.01-21.37 354.26-18.73 354.26-15.01L354.26-15.01 354.26-11.5 338.05-11.5 338-11.38Q338.1-9.3 338.87-7.69 339.64-6.08 341.06-5.15 342.49-4.22 344.54-4.22L344.54-4.22Q346.69-4.22 348.45-4.81 350.21-5.4 351.7-6.47L351.7-6.47 353.62-2.61Q352.06-1.29 349.65-0.39 347.23 0.51 344.01 0.51ZM338.07-15.94L338.15-15.82 348.38-15.82 348.38-16.46Q348.38-18.19 347.85-19.49 347.33-20.8 346.21-21.53 345.1-22.27 343.4-22.27L343.4-22.27Q341.91-22.27 340.78-21.44 339.66-20.61 338.99-19.18 338.32-17.75 338.07-15.94L338.07-15.94Z" opacity="1" transform="matrix(1,0,0,1,0,0)" fill="#000000" class="slogan-text-1" data-fill-palette-color="secondary" id="text-1"></path></svg></g></svg></g></svg></g></svg></g><g><svg viewBox="0 0 137.54310314866606 137.54310314866606" height="137.54310314866606" width="137.54310314866606"><g><svg></svg></g><g id="icon-0"><svg viewBox="0 0 137.54310314866606 137.54310314866606" height="137.54310314866606" width="137.54310314866606"><g><rect width="125.062340085176" height="125.062340085176" x="6.2403815317450295" y="6.2403815317450295" fill="#000000" data-fill-palette-color="accent"></rect><rect width="125.062340085176" height="125.062340085176" x="12.480763063490063" y="-3.552713678800501e-15" fill="#000000" opacity="0.5" data-fill-palette-color="accent"></rect></g><g transform="matrix(1,0,0,1,17.829661519271525,26.77644180236362)"><svg viewBox="0 0 101.88378011012301 83.99021954393882" height="83.99021954393882" width="101.88378011012301"><g><svg xmlns="http://www.w3.org/2000/svg" xmlns:xlink="http://www.w3.org/1999/xlink" version="1.1" x="0" y="0" viewBox="11.01300048828125 47.16999816894531 233.09597778320312 192.15798950195312" enable-background="new 0 0 255.12 255.12" xml:space="preserve" height="83.99021954393882" width="101.88378011012301" class="icon-s-0" data-fill-palette-color="background" id="s-0"><path d="M21.369 139.402l10.834 81.601c0 0 2.545 18.325 22.397 18.325s72.96 0 72.96 0 53.108 0 72.961 0c19.852 0 22.396-18.325 22.396-18.325l10.834-81.601H21.369zM59.739 217.075c-4.53 0.557-8.653-2.665-9.208-7.195l-5.902-48.063c-0.556-4.53 2.666-8.653 7.195-9.209 4.53-0.556 8.653 2.666 9.209 7.195l5.901 48.063C67.49 212.396 64.269 216.519 59.739 217.075zM93.371 217.272c-4.558 0.239-8.446-3.263-8.685-7.819l-2.534-48.358c-0.239-4.558 3.262-8.446 7.819-8.685 4.558-0.238 8.446 3.263 8.685 7.819l2.534 48.358C101.429 213.146 97.928 217.034 93.371 217.272zM135.824 209.054c0 4.563-3.7 8.264-8.264 8.264s-8.264-3.7-8.264-8.264v-48.425c0-4.563 3.7-8.263 8.264-8.263s8.264 3.699 8.264 8.263V209.054zM172.97 161.095l-2.534 48.358c-0.239 4.557-4.127 8.059-8.685 7.819-4.558-0.238-8.06-4.127-7.82-8.685l2.534-48.358c0.239-4.557 4.128-8.058 8.686-7.819C169.707 152.648 173.208 156.537 172.97 161.095zM210.492 161.816l-5.901 48.063c-0.556 4.53-4.679 7.752-9.209 7.195-4.529-0.557-7.751-4.68-7.194-9.209l5.9-48.063c0.557-4.529 4.68-7.751 9.209-7.195S211.048 157.286 210.492 161.816z" fill="#ffffff" data-fill-palette-color="background"></path><path d="M59.007 126.883c-0.816 0.884-1.975 1.392-3.18 1.392-1.09 0-2.131-0.407-2.933-1.146-0.85-0.784-1.343-1.851-1.39-3.006-0.047-1.155 0.359-2.259 1.143-3.108l3.571-3.836c-0.062-0.002-0.122-0.009-0.185-0.009-3.557 0-6.439 2.883-6.439 6.439s2.882 6.439 6.439 6.439c3.556 0 6.439-2.883 6.439-6.439 0-0.144-0.012-0.284-0.021-0.425L59.007 126.883z" fill="#ffffff" data-fill-palette-color="background"></path><path d="M233.066 112.566h-39.145l1.863 2.001c0.831-0.24 1.706-0.376 2.614-0.376 5.202 0 9.418 4.216 9.418 9.417 0 5.201-4.216 9.417-9.418 9.417-5.2 0-9.417-4.217-9.417-9.417 0-1.081 0.191-2.115 0.526-3.083l-7.409-7.96H72.333l-7.41 7.96c0.335 0.967 0.526 2.001 0.526 3.082 0 5.201-4.216 9.417-9.417 9.417-5.201 0-9.417-4.217-9.417-9.417 0-5.201 4.216-9.417 9.417-9.417 0.908 0 1.784 0.136 2.615 0.376l1.863-2.001H22.055c-6.099 0-11.042 4.944-11.042 11.042 0 6.098 4.944 11.042 11.042 11.042h211.012c6.099 0 11.042-4.944 11.042-11.042C244.108 117.51 239.165 112.566 233.066 112.566z" fill="#ffffff" data-fill-palette-color="background"></path><path d="M136.756 47.17c-4.576 0-8.414 3.113-9.54 7.334-1.126-4.221-4.964-7.334-9.54-7.334-5.458 0-9.884 4.425-9.884 9.884 0 1.373 0.281 2.681 0.788 3.869l2.891-3.105c-0.031-0.251-0.051-0.505-0.051-0.764 0-3.456 2.801-6.257 6.257-6.257s6.257 2.801 6.257 6.257c0 3.277-2.521 5.961-5.729 6.23l-3.08 3.309c0.815 0.218 1.668 0.345 2.552 0.345 4.575 0 8.414-3.113 9.54-7.334 1.126 4.221 4.963 7.334 9.54 7.334 0.884 0 1.735-0.127 2.551-0.345l-3.079-3.309c-3.208-0.269-5.729-2.954-5.729-6.23 0-3.456 2.801-6.257 6.257-6.257s6.257 2.801 6.257 6.257c0 0.259-0.021 0.513-0.051 0.764l2.891 3.105c0.506-1.188 0.787-2.496 0.787-3.869C146.64 51.595 142.215 47.17 136.756 47.17z" fill="#ffffff" data-fill-palette-color="background"></path><path d="M198.399 117.169c-0.062 0-0.122 0.007-0.184 0.009l3.569 3.835c0.784 0.851 1.19 1.954 1.144 3.109-0.047 1.155-0.54 2.222-1.391 3.006-0.801 0.739-1.843 1.146-2.932 1.146l0 0c-1.205 0-2.365-0.508-3.182-1.393l-3.442-3.698c-0.009 0.141-0.021 0.282-0.021 0.425 0 3.556 2.883 6.439 6.438 6.439 3.557 0 6.439-2.883 6.439-6.439S201.956 117.169 198.399 117.169z" fill="#ffffff" data-fill-palette-color="background"></path><g fill="#ffffff" data-fill-palette-color="background"><path d="M117.781 53.572c-1.063 0-2.086 0.448-2.807 1.229l-61.953 66.56c-0.691 0.749-1.049 1.723-1.008 2.742 0.042 1.019 0.477 1.96 1.227 2.652 0.708 0.652 1.626 1.012 2.588 1.012 1.063 0 2.086-0.448 2.807-1.229l61.954-66.56c0.691-0.749 1.049-1.723 1.008-2.742s-0.477-1.961-1.226-2.652C119.661 53.931 118.742 53.572 117.781 53.572z" fill="#ffffff" data-fill-palette-color="background"></path></g><g fill="#ffffff" data-fill-palette-color="background"><path d="M136.651 53.572c-0.961 0-1.88 0.359-2.587 1.011-0.75 0.691-1.186 1.633-1.227 2.652s0.317 1.993 1.009 2.743l61.952 66.558c0.721 0.782 1.744 1.23 2.808 1.23l0 0c0.961 0 1.88-0.359 2.587-1.012 0.75-0.691 1.186-1.633 1.227-2.652 0.041-1.019-0.316-1.993-1.009-2.743L139.46 54.802C138.738 54.02 137.715 53.572 136.651 53.572z" fill="#ffffff" data-fill-palette-color="background"></path></g></svg></g></svg></g></svg></g></svg></g></svg></g><defs></defs></svg><rect width="395.52" height="100.61477768139217" fill="none" stroke="none" visibility="hidden"></rect></g></svg></g></svg>